<svg xmlns="http://www.w3.org/2000/svg" xmlns:xlink="http://www.w3.org/1999/xlink" width="2560" zoomAndPan="magnify" viewBox="0 0 1920 1079.999946" height="1440" preserveAspectRatio="xMidYMid meet" version="1.0"><defs><g/><clipPath id="3729cc80a5"><rect x="0" width="491" y="0" height="1080"/></clipPath><clipPath id="e2bdd1efd8"><path d="M 220.351562 180.664062 L 424.4375 180.664062 L 424.4375 296.101562 L 220.351562 296.101562 Z M 220.351562 180.664062 " clip-rule="nonzero"/></clipPath><clipPath id="19dc01b12a"><path d="M 0.351562 0.664062 L 204.4375 0.664062 L 204.4375 116.101562 L 0.351562 116.101562 Z M 0.351562 0.664062 " clip-rule="nonzero"/></clipPath><clipPath id="81ab1c256f"><rect x="0" width="205" y="0" height="117"/></clipPath><clipPath id="957632a2e3"><path d="M 97.851562 447.257812 L 399.09375 447.257812 L 399.09375 571.5625 L 97.851562 571.5625 Z M 97.851562 447.257812 " clip-rule="nonzero"/></clipPath><clipPath id="f90e4af9d3"><path d="M 0.851562 0.257812 L 302 0.257812 L 302 124.5625 L 0.851562 124.5625 Z M 0.851562 0.257812 " clip-rule="nonzero"/></clipPath><clipPath id="7ee58dd8fb"><rect x="0" width="303" y="0" height="125"/></clipPath><clipPath id="a4572df284"><path d="M 0.125 730.714844 L 301.367188 730.714844 L 301.367188 863.105469 L 0.125 863.105469 Z M 0.125 730.714844 " clip-rule="nonzero"/></clipPath><clipPath id="8673a10b11"><path d="M 0.125 0.714844 L 301.367188 0.714844 L 301.367188 133.105469 L 0.125 133.105469 Z M 0.125 0.714844 " clip-rule="nonzero"/></clipPath><clipPath id="cf9c09ec01"><rect x="0" width="302" y="0" height="134"/></clipPath><clipPath id="5135db9f1e"><rect x="0" width="416" y="0" height="1080"/></clipPath><clipPath id="a71e15660c"><rect x="0" width="416" y="0" height="1080"/></clipPath><clipPath id="ddeb4e1c92"><rect x="0" width="284" y="0" height="1080"/></clipPath><clipPath id="03bb934460"><rect x="0" width="453" y="0" height="1080"/></clipPath><clipPath id="6480b8a0c9"><path d="M 1787.714844 192.785156 L 1908.914062 192.785156 L 1908.914062 313.976562 L 1787.714844 313.976562 Z M 1787.714844 192.785156 " clip-rule="nonzero"/></clipPath><clipPath id="29fe4bcd5f"><rect x="0" width="1913" y="0" height="1080"/></clipPath></defs><g transform="matrix(1, 0, 0, 1, 4, -0.000000000000003846)"><g clip-path="url(#29fe4bcd5f)"><g transform="matrix(1, 0, 0, 1, 222, -0.000000000000003846)"><g clip-path="url(#3729cc80a5)"><g fill="#ff8800" fill-opacity="1"><g transform="translate(1.003977, 863.276923)"><g><path d="M 256.5 -295.234375 L 207.9375 -295.234375 L 176.5625 -118.1875 L 228.546875 -118.1875 C 240.316406 -118.1875 250.613281 -121.046875 259.4375 -126.765625 C 268.269531 -132.492188 275.460938 -139.609375 281.015625 -148.109375 C 286.578125 -156.609375 290.175781 -165.273438 291.8125 -174.109375 L 302.109375 -233.9375 C 305.703125 -254.863281 302.675781 -270.3125 293.03125 -280.28125 C 283.382812 -290.25 271.207031 -295.234375 256.5 -295.234375 Z M 336.4375 -453.15625 L 344.78125 -501.21875 C 348.375 -521.476562 345.671875 -536.265625 336.671875 -545.578125 C 327.679688 -554.898438 315.34375 -559.5625 299.65625 -559.5625 L 254.53125 -559.5625 L 226.578125 -400.6875 L 270.234375 -400.6875 C 277.421875 -400.6875 285.753906 -402.15625 295.234375 -405.09375 C 304.722656 -408.039062 313.390625 -413.273438 321.234375 -420.796875 C 329.078125 -428.316406 334.144531 -439.101562 336.4375 -453.15625 Z M 171.65625 -678.75 L 327.125 -678.75 C 361.445312 -678.75 390.296875 -671.304688 413.671875 -656.421875 C 437.054688 -641.546875 453.734375 -621.359375 463.703125 -595.859375 C 473.671875 -570.359375 475.710938 -541.265625 469.828125 -508.578125 L 461.5 -460.03125 C 458.226562 -441.71875 451.441406 -424.878906 441.140625 -409.515625 C 430.847656 -394.148438 419.242188 -381.394531 406.328125 -371.25 C 393.410156 -361.113281 381.394531 -354.90625 370.28125 -352.625 C 376.8125 -350.65625 384.328125 -346.726562 392.828125 -340.84375 C 401.335938 -334.957031 409.101562 -326.785156 416.125 -316.328125 C 423.15625 -305.867188 428.304688 -292.875 431.578125 -277.34375 C 434.847656 -261.8125 434.519531 -243.421875 430.59375 -222.171875 L 419.8125 -161.359375 C 415.5625 -137.484375 407.140625 -115.65625 394.546875 -95.875 C 381.960938 -76.09375 366.429688 -59.09375 347.953125 -44.875 C 329.484375 -30.65625 309.539062 -19.617188 288.125 -11.765625 C 266.707031 -3.921875 245.046875 0 223.140625 0 L 51.984375 0 C 40.867188 0 36.289062 -6.210938 38.25 -18.640625 L 151.046875 -659.609375 C 153.671875 -672.367188 160.539062 -678.75 171.65625 -678.75 Z M 171.65625 -678.75 "/></g></g></g></g></g><g clip-path="url(#e2bdd1efd8)"><g transform="matrix(1, 0, 0, 1, 220, 180)"><g clip-path="url(#81ab1c256f)"><g clip-path="url(#19dc01b12a)"><path fill="#ff8800" d="M 0.351562 0.664062 L 204.621094 0.664062 L 204.621094 116.101562 L 0.351562 116.101562 Z M 0.351562 0.664062 " fill-opacity="1" fill-rule="nonzero"/></g></g></g></g><g clip-path="url(#957632a2e3)"><g transform="matrix(1, 0, 0, 1, 97, 447)"><g clip-path="url(#7ee58dd8fb)"><g clip-path="url(#f90e4af9d3)"><path fill="#ff8800" d="M 0.851562 0.257812 L 301.902344 0.257812 L 301.902344 124.5625 L 0.851562 124.5625 Z M 0.851562 0.257812 " fill-opacity="1" fill-rule="nonzero"/></g></g></g></g><g clip-path="url(#a4572df284)"><g transform="matrix(1, 0, 0, 1, 0.000000000000000444, 730)"><g clip-path="url(#cf9c09ec01)"><g clip-path="url(#8673a10b11)"><path fill="#ff8800" d="M 0.125 0.714844 L 301.617188 0.714844 L 301.617188 133.105469 L 0.125 133.105469 Z M 0.125 0.714844 " fill-opacity="1" fill-rule="nonzero"/></g></g></g></g><g transform="matrix(1, 0, 0, 1, 808, -0.000000000000003846)"><g clip-path="url(#5135db9f1e)"><g fill="#ff8800" fill-opacity="1"><g transform="translate(0.915481, 863.276923)"><g><path d="M 399.703125 -488.46875 L 387.9375 -421.765625 C 387.601562 -420.128906 387.191406 -418.085938 386.703125 -415.640625 C 386.210938 -413.191406 384.988281 -410.332031 383.03125 -407.0625 L 181.953125 -123.59375 L 167.734375 -107.890625 L 326.625 -107.890625 C 329.894531 -107.890625 332.835938 -106.5 335.453125 -103.71875 C 338.066406 -100.945312 339.050781 -97.925781 338.40625 -94.65625 L 324.671875 -14.21875 C 323.679688 -9.96875 321.550781 -6.453125 318.28125 -3.671875 C 315.019531 -0.898438 311.425781 0.484375 307.5 0.484375 L 22.0625 0.484375 C 18.800781 0.484375 16.597656 -0.820312 15.453125 -3.4375 C 14.304688 -6.050781 14.0625 -9.316406 14.71875 -13.234375 L 23.546875 -70.625 C 24.191406 -73.238281 26.640625 -78.140625 30.890625 -85.328125 L 231.96875 -379.109375 L 244.71875 -392.84375 L 98.09375 -392.84375 C 95.144531 -392.84375 92.9375 -394.226562 91.46875 -397 C 90 -399.78125 89.585938 -402.96875 90.234375 -406.5625 L 104.46875 -487.984375 C 105.113281 -492.234375 106.5 -495.664062 108.625 -498.28125 C 110.75 -500.894531 113.773438 -502.203125 117.703125 -502.203125 L 391.859375 -502.203125 C 398.722656 -502.203125 401.335938 -497.625 399.703125 -488.46875 Z M 399.703125 -488.46875 "/></g></g></g></g></g><g transform="matrix(1, 0, 0, 1, 1086, -0.000000000000003846)"><g clip-path="url(#a71e15660c)"><g fill="#ff8800" fill-opacity="1"><g transform="translate(0.71569, 863.276923)"><g><path d="M 399.703125 -488.46875 L 387.9375 -421.765625 C 387.601562 -420.128906 387.191406 -418.085938 386.703125 -415.640625 C 386.210938 -413.191406 384.988281 -410.332031 383.03125 -407.0625 L 181.953125 -123.59375 L 167.734375 -107.890625 L 326.625 -107.890625 C 329.894531 -107.890625 332.835938 -106.5 335.453125 -103.71875 C 338.066406 -100.945312 339.050781 -97.925781 338.40625 -94.65625 L 324.671875 -14.21875 C 323.679688 -9.96875 321.550781 -6.453125 318.28125 -3.671875 C 315.019531 -0.898438 311.425781 0.484375 307.5 0.484375 L 22.0625 0.484375 C 18.800781 0.484375 16.597656 -0.820312 15.453125 -3.4375 C 14.304688 -6.050781 14.0625 -9.316406 14.71875 -13.234375 L 23.546875 -70.625 C 24.191406 -73.238281 26.640625 -78.140625 30.890625 -85.328125 L 231.96875 -379.109375 L 244.71875 -392.84375 L 98.09375 -392.84375 C 95.144531 -392.84375 92.9375 -394.226562 91.46875 -397 C 90 -399.78125 89.585938 -402.96875 90.234375 -406.5625 L 104.46875 -487.984375 C 105.113281 -492.234375 106.5 -495.664062 108.625 -498.28125 C 110.75 -500.894531 113.773438 -502.203125 117.703125 -502.203125 L 391.859375 -502.203125 C 398.722656 -502.203125 401.335938 -497.625 399.703125 -488.46875 Z M 399.703125 -488.46875 "/></g></g></g></g></g><g transform="matrix(1, 0, 0, 1, 625, -0.000000000000003846)"><g clip-path="url(#ddeb4e1c92)"><g fill="#ff8800" fill-opacity="1"><g transform="translate(0.873252, 857.076284)"><g><path d="M 135.359375 0 L 45.609375 0 C 34.492188 0 29.914062 -5.394531 31.875 -16.1875 L 114.765625 -487 C 115.410156 -491.570312 117.695312 -495.25 121.625 -498.03125 C 125.550781 -500.8125 129.640625 -502.203125 133.890625 -502.203125 L 223.640625 -502.203125 C 228.546875 -502.203125 232.550781 -500.726562 235.65625 -497.78125 C 238.757812 -494.84375 239.984375 -491.25 239.328125 -487 L 156.453125 -16.1875 C 155.796875 -10.957031 153.503906 -6.953125 149.578125 -4.171875 C 145.660156 -1.390625 140.921875 0 135.359375 0 Z M 267.78125 -631.171875 L 255.515625 -563.484375 C 254.203125 -554.335938 250.929688 -548.046875 245.703125 -544.609375 C 240.472656 -541.171875 233.9375 -539.453125 226.09375 -539.453125 L 146.640625 -539.453125 C 138.460938 -539.453125 132.082031 -541.085938 127.5 -544.359375 C 122.925781 -547.628906 121.457031 -553.84375 123.09375 -563 L 134.875 -631.65625 C 136.507812 -639.175781 139.695312 -645.390625 144.4375 -650.296875 C 149.175781 -655.203125 156.773438 -657.65625 167.234375 -657.65625 L 246.6875 -657.65625 C 264.019531 -657.65625 271.050781 -648.828125 267.78125 -631.171875 Z M 267.78125 -631.171875 "/></g></g></g></g></g><g transform="matrix(1, 0, 0, 1, 1397, -0.000000000000003846)"><g clip-path="url(#03bb934460)"><g fill="#ff8800" fill-opacity="1"><g transform="translate(0.205466, 863.276923)"><g><path d="M 234.921875 -485.53125 L 179.984375 -174.109375 C 179.003906 -163.316406 181.703125 -153.992188 188.078125 -146.140625 C 194.453125 -138.296875 204.179688 -134.375 217.265625 -134.375 C 226.085938 -134.375 234.175781 -136.90625 241.53125 -141.96875 C 248.894531 -147.039062 255.109375 -153.5 260.171875 -161.34375 C 265.242188 -169.195312 268.429688 -177.046875 269.734375 -184.890625 L 322.21875 -480.625 C 323.519531 -488.46875 326.867188 -494.023438 332.265625 -497.296875 C 337.660156 -500.566406 341.664062 -502.203125 344.28125 -502.203125 L 435.015625 -502.203125 C 438.941406 -502.203125 442.128906 -500.8125 444.578125 -498.03125 C 447.023438 -495.25 447.925781 -491.082031 447.28125 -485.53125 L 381.0625 -113.78125 L 381.5625 -113.78125 L 364.390625 -16.671875 C 358.503906 17.003906 346.648438 46.507812 328.828125 71.84375 C 311.015625 97.1875 287.800781 116.882812 259.1875 130.9375 C 230.582031 145 196.988281 152.03125 158.40625 152.03125 C 128.332031 152.03125 101.847656 148.109375 78.953125 140.265625 C 56.066406 132.421875 37.757812 122.773438 24.03125 111.328125 C 20.101562 108.390625 17.894531 104.546875 17.40625 99.796875 C 16.914062 95.054688 18.144531 90.5625 21.09375 86.3125 L 58.859375 26.96875 C 62.773438 22.070312 66.695312 19.625 70.625 19.625 C 73.894531 19.625 77.488281 21.253906 81.40625 24.515625 C 90.238281 31.710938 101.847656 37.925781 116.234375 43.15625 C 130.617188 48.382812 144.515625 51 157.921875 51 C 170.015625 51 181.78125 48.875 193.21875 44.625 C 204.664062 40.375 214.640625 33.097656 223.140625 22.796875 C 231.640625 12.503906 237.363281 -1.632812 240.3125 -19.625 L 244.71875 -46.59375 C 231.96875 -40.050781 219.132812 -34.898438 206.21875 -31.140625 C 193.3125 -27.378906 180.644531 -25.5 168.21875 -25.5 C 141.738281 -25.5 119.097656 -31.710938 100.296875 -44.140625 C 81.492188 -56.566406 68.164062 -74.140625 60.3125 -96.859375 C 52.46875 -119.585938 51.164062 -146.316406 56.40625 -177.046875 L 60.8125 -203.53125 L 60.8125 -204.015625 L 110.84375 -485.53125 C 111.820312 -491.082031 113.945312 -495.25 117.21875 -498.03125 C 120.488281 -500.8125 124.25 -502.203125 128.5 -502.203125 L 223.640625 -502.203125 C 227.890625 -502.203125 231.078125 -500.8125 233.203125 -498.03125 C 235.328125 -495.25 235.898438 -491.082031 234.921875 -485.53125 Z M 234.921875 -485.53125 "/></g></g></g></g></g><g clip-path="url(#6480b8a0c9)"><path fill="#ff8800" d="M 1840.757812 250.621094 L 1847.390625 250.621094 C 1855.125 250.621094 1861.386719 248.042969 1861.386719 241.777344 C 1861.386719 236.253906 1857.332031 232.570312 1848.492188 232.570312 C 1844.808594 232.570312 1842.230469 232.9375 1840.757812 233.308594 Z M 1840.390625 284.507812 L 1826.394531 284.507812 L 1826.394531 224.097656 C 1831.917969 223.363281 1839.652344 222.253906 1849.597656 222.253906 C 1861.015625 222.253906 1866.175781 224.097656 1870.226562 227.046875 C 1873.910156 229.625 1876.488281 234.042969 1876.488281 239.9375 C 1876.488281 247.304688 1870.964844 252.09375 1863.964844 254.300781 L 1863.964844 255.039062 C 1869.859375 256.882812 1872.804688 261.667969 1874.644531 269.773438 C 1876.488281 278.984375 1877.960938 282.296875 1879.066406 284.507812 L 1864.332031 284.507812 C 1862.492188 282.296875 1861.386719 277.140625 1859.542969 269.773438 C 1858.4375 263.511719 1854.753906 260.5625 1847.019531 260.5625 L 1840.390625 260.5625 Z M 1803.1875 253.199219 C 1803.1875 280.089844 1823.445312 301.453125 1850.335938 301.453125 C 1876.488281 301.820312 1896.378906 280.089844 1896.378906 253.566406 C 1896.378906 226.675781 1876.488281 204.941406 1849.597656 204.941406 C 1823.445312 204.941406 1803.1875 226.675781 1803.1875 253.199219 Z M 1911.851562 253.199219 C 1911.851562 287.085938 1884.59375 313.976562 1849.96875 313.976562 C 1815.34375 313.976562 1787.714844 287.085938 1787.714844 253.199219 C 1787.714844 219.308594 1815.34375 192.785156 1850.335938 192.785156 C 1884.59375 192.785156 1911.851562 219.308594 1911.851562 253.199219 " fill-opacity="1" fill-rule="nonzero"/></g></g></g></svg>